<svg width="43" height="39" viewBox="0 0 43 39" fill="none" xmlns="http://www.w3.org/2000/svg">
<path d="M38.5 34.5C38.5 36.5711 36.5972 38.25 34.25 38.25C31.9028 38.25 30 36.5711 30 34.5C30 32.4289 31.9028 30.75 34.25 30.75C36.5972 30.75 38.5 32.4289 38.5 34.5ZM13 30.75C10.6528 30.75 8.75 32.4289 8.75 34.5C8.75 36.5711 10.6528 38.25 13 38.25C15.3472 38.25 17.25 36.5711 17.25 34.5C17.25 32.4289 15.3472 30.75 13 30.75ZM41.6875 4.5H8.155L6.965 2.625C6.2028 1.46012 4.79191 0.744659 3.2675 0.749999H1.3125C0.725697 0.749999 0.25 1.16973 0.25 1.6875V3.5625C0.25 4.08027 0.725697 4.5 1.3125 4.5H3.2675L12.3625 18.5438C12.5282 18.779 12.7204 18.9989 12.9362 19.2L8.98375 26.1375C8.73805 26.5548 8.73805 27.0515 8.98375 27.4688L9.45125 28.1812C9.7496 28.6219 10.2935 28.8869 10.875 28.875H37.4375C38.0243 28.875 38.5 28.4553 38.5 27.9375V26.0625C38.5 25.5447 38.0243 25.125 37.4375 25.125H14.3175L16.4425 21.2063C16.8867 21.3096 17.3432 21.3663 17.8025 21.375H31.0413C33.2634 21.3356 35.2944 20.2574 36.375 18.5438L41.3688 10.8C42.2585 9.45647 42.7346 7.93102 42.75 6.375V5.4375C42.75 4.91973 42.2743 4.5 41.6875 4.5Z" fill="#2D9EC1"/>
</svg>
