<svg width="43" height="40" viewBox="0 0 43 40" fill="none" xmlns="http://www.w3.org/2000/svg">
<path d="M42.875 20.52V37.3333C42.875 38.53 41.8117 39.5 40.5 39.5H31C29.6883 39.5 28.625 38.53 28.625 37.3333V25.4167C28.625 24.8184 28.0933 24.3333 27.4375 24.3333H15.5625C14.9067 24.3333 14.375 24.8184 14.375 25.4167V37.3333C14.375 38.53 13.3117 39.5 12 39.5H2.5C1.18832 39.5 0.125 38.53 0.125 37.3333V20.52C0.126663 18.7967 0.878422 17.1445 2.215 15.9267L18.4363 1.12833C18.8786 0.728054 19.4757 0.502393 20.0987 0.5H22.9013C23.5243 0.502393 24.1214 0.728054 24.5637 1.12833L40.785 15.9267C42.1216 17.1445 42.8733 18.7967 42.875 20.52Z" fill="#2D9EC1"/>
</svg>
